<svg width="20" height="20" viewBox="0 0 20 20" fill="none" xmlns="http://www.w3.org/2000/svg">
<path fill-rule="evenodd" clip-rule="evenodd" d="M13.832 19.1668H6.16799C4.05164 19.1668 2.336 17.5297 2.336 15.5101V11.0387C2.336 10.3896 2.06574 9.76696 1.58469 9.30789C0.470136 8.24429 0.615025 6.48204 1.88978 5.59734L7.74611 1.53291C9.08982 0.600358 10.9101 0.600358 12.2539 1.53291L18.1102 5.59733C19.3849 6.48204 19.5298 8.24429 18.4153 9.30789C17.9342 9.76696 17.664 10.3896 17.664 11.0387V15.5101C17.664 17.5297 15.9483 19.1668 13.832 19.1668ZM7.34759 8.57639L9.18011 7.6601C9.69619 7.40204 10.3038 7.40204 10.8198 7.6601L12.6447 8.57254C13.2702 8.88531 13.6716 9.52826 13.634 10.2266C13.4862 12.9742 12.8187 14.2529 11.0202 15.6719C10.4232 16.1427 9.57749 16.1416 8.97973 15.6718C7.18589 14.2617 6.49379 12.9988 6.35887 10.218C6.32519 9.52386 6.72606 8.88714 7.34759 8.57639Z" fill="#4573FD"/>
</svg>
