<svg width="22" height="22" viewBox="0 0 22 22" fill="none" xmlns="http://www.w3.org/2000/svg">
<path fill-rule="evenodd" clip-rule="evenodd" d="M18.3333 5.50016V10.644C18.0385 10.5771 17.7317 10.5418 17.4166 10.5418H16.5C15.4901 10.5418 14.5392 11.0173 13.9333 11.8252L12.8333 13.2918C12.4006 13.8689 11.7213 14.2085 11 14.2085C10.2787 14.2085 9.5994 13.8689 9.16665 13.2918L8.06665 11.8252C7.46074 11.0173 6.50983 10.5418 5.49998 10.5418H4.58331C4.26826 10.5418 3.96146 10.5771 3.66665 10.644V5.50016C3.66665 3.47512 5.30827 1.8335 7.33331 1.8335H14.6666C16.6917 1.8335 18.3333 3.47512 18.3333 5.50016ZM20.1666 14.6668V17.4168C20.1666 18.9357 18.9355 20.1668 17.4166 20.1668H4.58331C3.06453 20.1668 1.83331 18.9357 1.83331 17.4168V14.6668C1.83331 13.148 3.06453 11.9168 4.58331 11.9168H5.49998C6.07703 11.9168 6.62041 12.1885 6.96665 12.6502L8.06665 14.1168C8.75911 15.0401 9.8459 15.5835 11 15.5835C12.1541 15.5835 13.2409 15.0401 13.9333 14.1168L15.0333 12.6502C15.3795 12.1885 15.9229 11.9168 16.5 11.9168H17.4166C18.9355 11.9168 20.1666 13.148 20.1666 14.6668Z" fill="#4573FD"/>
</svg>
