<svg width="22" height="22" viewBox="0 0 22 22" fill="none" xmlns="http://www.w3.org/2000/svg">
<path fill-rule="evenodd" clip-rule="evenodd" d="M5.49998 1.8335C3.47493 1.8335 1.83331 3.47512 1.83331 5.50016V16.5002C1.83331 18.5252 3.47493 20.1668 5.49998 20.1668H16.5C18.525 20.1668 20.1666 18.5252 20.1666 16.5002V5.50016C20.1666 3.47512 18.525 1.8335 16.5 1.8335H5.49998ZM11.6876 5.50016C11.6876 5.12047 11.3798 4.81266 11.0001 4.81266C10.6204 4.81266 10.3126 5.12047 10.3126 5.50016V6.69997C9.3486 6.85287 8.48995 7.32214 7.84634 7.99804L6.45782 7.19638C6.129 7.00653 5.70853 7.1192 5.51868 7.44802C5.32884 7.77685 5.4415 8.19732 5.77032 8.38717L7.06474 9.1345C6.79618 9.69996 6.64592 10.3326 6.64592 11.0002C6.64592 11.6678 6.79617 12.3004 7.06472 12.8658L5.77032 13.6131C5.4415 13.803 5.32884 14.2234 5.51868 14.5522C5.70853 14.8811 6.129 14.9937 6.45782 14.8039L7.84631 14.0022C8.48992 14.6782 9.3486 15.1474 10.3126 15.3003V16.5002C10.3126 16.8798 10.6204 17.1877 11.0001 17.1877C11.3798 17.1877 11.6876 16.8798 11.6876 16.5002V15.3003C12.6516 15.1474 13.5103 14.6782 14.1539 14.0022L15.5422 14.8039C15.8711 14.9937 16.2915 14.8811 16.4814 14.5522C16.6712 14.2233 16.5586 13.8029 16.2297 13.613L14.9354 12.8658C15.204 12.3004 15.3542 11.6678 15.3542 11.0002C15.3542 10.3326 15.204 9.69996 14.9354 9.13449L16.2297 8.38722C16.5586 8.19737 16.6712 7.77691 16.4814 7.44808C16.2915 7.11925 15.8711 7.00659 15.5422 7.19644L14.1539 7.99803C13.5102 7.32213 12.6515 6.85287 11.6876 6.69997V5.50016ZM8.02092 11.0002C8.02092 9.35484 9.35475 8.021 11.0001 8.021C12.6454 8.021 13.9792 9.35484 13.9792 11.0002C13.9792 12.6455 12.6454 13.9793 11.0001 13.9793C9.35475 13.9793 8.02092 12.6455 8.02092 11.0002Z" fill="#4573FD"/>
</svg>
