<svg width="22" height="22" viewBox="0 0 22 22" fill="none" xmlns="http://www.w3.org/2000/svg">
<path fill-rule="evenodd" clip-rule="evenodd" d="M9.85419 1.8335C9.85419 1.4538 9.54637 1.146 9.16669 1.146C8.78699 1.146 8.47919 1.4538 8.47919 1.8335V3.66683C8.47919 4.04652 8.78699 4.35433 9.16669 4.35433C9.54637 4.35433 9.85419 4.04652 9.85419 3.66683V1.8335ZM13.5209 4.5835C13.5209 4.2038 13.213 3.896 12.8334 3.896C12.4537 3.896 12.1459 4.2038 12.1459 4.5835V6.41683C12.1459 6.79652 12.4537 7.10433 12.8334 7.10433C13.213 7.10433 13.5209 6.79652 13.5209 6.41683V4.5835ZM6.61339 6.15888C6.97721 6.05025 7.18408 5.66724 7.07545 5.30342C6.96681 4.9396 6.58381 4.73273 6.21999 4.84135C5.33745 5.10487 4.56478 5.45231 3.99738 5.8829C3.43929 6.30644 2.97919 6.89304 2.97919 7.6325C2.97919 11.1466 4.82792 14.2235 7.56252 15.6603V18.3435C7.56252 20.215 9.53986 21.4169 11.209 20.5879L13.0424 19.6774C13.8957 19.2536 14.4375 18.3856 14.4375 17.433V15.6603C17.1721 14.2235 19.0209 11.1466 19.0209 7.6325C19.0209 6.89304 18.5608 6.30644 18.0026 5.8829C17.4353 5.45231 16.6626 5.10487 15.7801 4.84135C15.4162 4.73273 15.0333 4.9396 14.9246 5.30342C14.8159 5.66724 15.0228 6.05025 15.3866 6.15888C16.1807 6.39595 16.783 6.68341 17.1715 6.97821C17.5692 7.28007 17.6459 7.50938 17.6459 7.6325C17.6459 7.74056 17.5895 7.92724 17.3027 8.17976C17.017 8.43132 16.5642 8.68923 15.9455 8.91969C14.7133 9.37867 12.9649 9.6765 11 9.6765C9.03514 9.6765 7.2868 9.37867 6.05454 8.91969C5.43581 8.68923 4.983 8.43132 4.69734 8.17976C4.41058 7.92724 4.35419 7.74056 4.35419 7.6325C4.35419 7.50938 4.43083 7.28007 4.8286 6.97821C5.21707 6.68341 5.81941 6.39595 6.61339 6.15888ZM9.16669 5.72933C9.54637 5.72933 9.85419 6.03714 9.85419 6.41683V7.3335C9.85419 7.71319 9.54637 8.021 9.16669 8.021C8.78699 8.021 8.47919 7.71319 8.47919 7.3335V6.41683C8.47919 6.03714 8.78699 5.72933 9.16669 5.72933Z" fill="#4573FD"/>
</svg>
