<svg width="142" height="66" viewBox="0 0 142 66" fill="none" xmlns="http://www.w3.org/2000/svg">
<g clip-path="url(#clip0_226_108)">
<path fill-rule="evenodd" clip-rule="evenodd" d="M83 33C83 18.6406 94.6406 7 109 7C123.359 7 135 18.6406 135 33C135 47.3594 123.359 59 109 59C94.6406 59 83 47.3594 83 33Z" fill="white"/>
<path d="M106 27L112 33L106 39" stroke="#969696" stroke-width="2" stroke-linecap="round" stroke-linejoin="round"/>
</g>
<path d="M33 58C19.1929 58 8 46.8071 8 33C8 19.1929 19.1929 8 33 8C46.8071 8 58 19.1929 58 33C58 46.8071 46.8071 58 33 58Z" stroke="#969696" stroke-width="2" stroke-miterlimit="10"/>
<path d="M36 27L30 33L36 39" stroke="#969696" stroke-width="2" stroke-linecap="round" stroke-linejoin="round"/>
<defs>
<clipPath id="clip0_226_108">
<rect width="66" height="66" fill="white" transform="translate(76)"/>
</clipPath>
</defs>
</svg>
