<svg width="33" height="16" viewBox="0 0 33 16" fill="none" xmlns="http://www.w3.org/2000/svg">
<path d="M3.7 15V2.16L4.58 2.84H0.72V0.4H6.52V15H3.7ZM14.9561 15.38C13.8094 15.38 12.8228 15.1533 11.9961 14.7C11.1828 14.2467 10.5561 13.6467 10.1161 12.9C9.68943 12.14 9.47609 11.3133 9.47609 10.42H12.2161C12.2161 10.9267 12.3294 11.3733 12.5561 11.76C12.7961 12.1467 13.1228 12.4533 13.5361 12.68C13.9494 12.8933 14.4294 13 14.9761 13C15.5494 13 16.0428 12.88 16.4561 12.64C16.8694 12.4 17.1828 12.0733 17.3961 11.66C17.6228 11.2467 17.7361 10.7733 17.7361 10.24C17.7361 9.72 17.6228 9.25333 17.3961 8.84C17.1828 8.41333 16.8694 8.08 16.4561 7.84C16.0561 7.58667 15.5694 7.46 14.9961 7.46C14.5161 7.46 14.0628 7.55333 13.6361 7.74C13.2094 7.92667 12.8761 8.17333 12.6361 8.48H10.0161L10.7561 0.4H19.2161V2.82H11.9961L12.9961 2.04L12.5161 7.08L11.8361 6.88C12.2228 6.44 12.6961 6.07333 13.2561 5.78C13.8161 5.48667 14.5228 5.34 15.3761 5.34C16.4561 5.34 17.3761 5.56 18.1361 6C18.8961 6.44 19.4761 7.02667 19.8761 7.76C20.2761 8.48 20.4761 9.26667 20.4761 10.12V10.38C20.4761 11.2467 20.2628 12.06 19.8361 12.82C19.4094 13.58 18.7828 14.2 17.9561 14.68C17.1428 15.1467 16.1428 15.38 14.9561 15.38Z" fill="white"/>
<path d="M25.9505 13.06V3.18H28.3905V13.06H25.9505ZM22.3305 9.24V7H32.0105V9.24H22.3305Z" fill="#4573FD"/>
</svg>
