<svg width="51" height="17" viewBox="0 0 51 17" fill="none" xmlns="http://www.w3.org/2000/svg">
<path d="M0.3 16V13.2C0.3 12.5867 0.393333 12.0533 0.58 11.6C0.78 11.1467 1.1 10.7467 1.54 10.4C1.99333 10.04 2.58667 9.7 3.32 9.38L5.8 8.28C6.41333 8 6.88 7.66 7.2 7.26C7.53333 6.84667 7.7 6.32 7.7 5.68C7.7 4.97333 7.48667 4.41333 7.06 4C6.64667 3.57333 6.05333 3.36 5.28 3.36C4.50667 3.36 3.90667 3.57333 3.48 4C3.06667 4.42667 2.86 5.02 2.86 5.78H0.12C0.12 4.87333 0.313333 4.06 0.7 3.34C1.08667 2.60667 1.66 2.03333 2.42 1.62C3.18 1.19333 4.13333 0.979999 5.28 0.979999C6.42667 0.979999 7.38 1.18667 8.14 1.6C8.9 2.01333 9.47333 2.56667 9.86 3.26C10.2467 3.94 10.44 4.7 10.44 5.54V5.8C10.44 6.89333 10.1333 7.80667 9.52 8.54C8.90667 9.26 8.00667 9.88667 6.82 10.42L4.34 11.52C3.87333 11.72 3.54667 11.9333 3.36 12.16C3.17333 12.3733 3.08 12.6667 3.08 13.04V14.32L2.4 13.58H10.5V16H0.3ZM18.0991 16.4C16.9791 16.4 15.9924 16.22 15.1391 15.86C14.2857 15.5 13.6191 14.9867 13.1391 14.32C12.6591 13.6533 12.4191 12.86 12.4191 11.94C12.4191 11.3267 12.5257 10.7867 12.7391 10.32C12.9524 9.84 13.2457 9.43333 13.6191 9.1C13.9924 8.75333 14.4324 8.49333 14.9391 8.32V8.08C14.5524 7.90667 14.1991 7.68 13.8791 7.4C13.5724 7.12 13.3257 6.78 13.1391 6.38C12.9657 5.98 12.8791 5.52 12.8791 5C12.8791 4.12 13.1057 3.38667 13.5591 2.8C14.0257 2.2 14.6524 1.75333 15.4391 1.46C16.2391 1.15333 17.1257 0.999999 18.0991 0.999999C19.0857 0.999999 19.9724 1.15333 20.7591 1.46C21.5591 1.75333 22.1857 2.2 22.6391 2.8C23.1057 3.38667 23.3391 4.12 23.3391 5C23.3391 5.52 23.2457 5.98 23.0591 6.38C22.8857 6.78 22.6457 7.12 22.3391 7.4C22.0324 7.68 21.6791 7.90667 21.2791 8.08V8.32C21.7857 8.49333 22.2257 8.75333 22.5991 9.1C22.9857 9.44667 23.2791 9.86 23.4791 10.34C23.6924 10.8067 23.7991 11.34 23.7991 11.94C23.7991 12.86 23.5591 13.6533 23.0791 14.32C22.6124 14.9867 21.9524 15.5 21.0991 15.86C20.2457 16.22 19.2457 16.4 18.0991 16.4ZM18.0991 14.06C18.7124 14.06 19.2391 13.9667 19.6791 13.78C20.1191 13.5933 20.4591 13.32 20.6991 12.96C20.9391 12.6 21.0591 12.1667 21.0591 11.66C21.0591 11.1533 20.9391 10.7267 20.6991 10.38C20.4724 10.02 20.1324 9.74667 19.6791 9.56C19.2391 9.37333 18.7124 9.28 18.0991 9.28C17.4991 9.28 16.9791 9.37333 16.5391 9.56C16.0991 9.74667 15.7591 10.02 15.5191 10.38C15.2791 10.7267 15.1591 11.1533 15.1591 11.66C15.1591 12.1667 15.2791 12.6 15.5191 12.96C15.7591 13.32 16.0991 13.5933 16.5391 13.78C16.9791 13.9667 17.4991 14.06 18.0991 14.06ZM18.0991 7.16C18.8724 7.16 19.4791 7 19.9191 6.68C20.3724 6.34667 20.5991 5.86667 20.5991 5.24C20.5991 4.58667 20.3724 4.10667 19.9191 3.8C19.4657 3.49333 18.8591 3.34 18.0991 3.34C17.3391 3.34 16.7324 3.5 16.2791 3.82C15.8391 4.12667 15.6191 4.6 15.6191 5.24C15.6191 5.86667 15.8457 6.34667 16.2991 6.68C16.7524 7 17.3524 7.16 18.0991 7.16ZM32.2636 16.38C31.1169 16.38 30.1436 16.1933 29.3436 15.82C28.5436 15.4333 27.8903 14.9133 27.3836 14.26C26.8769 13.5933 26.5036 12.8333 26.2636 11.98C26.0369 11.1133 25.9236 10.2067 25.9236 9.26V8.14C25.9236 6.79333 26.1503 5.58 26.6036 4.5C27.0569 3.42 27.7503 2.56667 28.6836 1.94C29.6169 1.3 30.8103 0.979999 32.2636 0.979999C33.7036 0.979999 34.8903 1.3 35.8236 1.94C36.7569 2.56667 37.4436 3.42 37.8836 4.5C38.3369 5.58 38.5636 6.79333 38.5636 8.14V9.26C38.5636 10.2067 38.4436 11.1133 38.2036 11.98C37.9769 12.8333 37.6103 13.5933 37.1036 14.26C36.6103 14.9133 35.9636 15.4333 35.1636 15.82C34.3636 16.1933 33.3969 16.38 32.2636 16.38ZM32.2636 13.78C33.4503 13.78 34.3236 13.3733 34.8836 12.56C35.4436 11.7333 35.7236 10.4533 35.7236 8.72C35.7236 6.88 35.4369 5.56667 34.8636 4.78C34.2903 3.98 33.4236 3.58 32.2636 3.58C31.0903 3.58 30.2103 3.98 29.6236 4.78C29.0503 5.56667 28.7636 6.86667 28.7636 8.68C28.7636 10.4267 29.0503 11.7133 29.6236 12.54C30.1969 13.3667 31.0769 13.78 32.2636 13.78Z" fill="white"/>
<path d="M44.5208 14.06V4.18H46.9608V14.06H44.5208ZM40.9008 10.24V8H50.5808V10.24H40.9008Z" fill="#4573FD"/>
</svg>
