<svg width="38" height="17" viewBox="0 0 38 17" fill="none" xmlns="http://www.w3.org/2000/svg">
<path d="M0.76 12.98V9.9L6.48 0.999999L8.62 2.46L3.58 10.34L3.82 10.74H12.78V12.98H0.76ZM8.4 16V5.54H11.02V16H8.4ZM19.6822 0.979999C20.7622 0.979999 21.6755 1.16667 22.4222 1.54C23.1822 1.9 23.7955 2.4 24.2622 3.04C24.7289 3.68 25.0689 4.42667 25.2822 5.28C25.4955 6.12 25.6022 7.01333 25.6022 7.96V8.84C25.6022 11.2267 24.9955 13.04 23.7822 14.28C22.5822 15.5067 20.8155 16.12 18.4822 16.12C17.9755 16.12 17.5022 16.1067 17.0622 16.08C16.6222 16.0533 16.1822 16.0133 15.7422 15.96V13.58C16.1822 13.6333 16.6289 13.6733 17.0822 13.7C17.5489 13.7267 18.0489 13.74 18.5822 13.74C19.7022 13.74 20.5822 13.5467 21.2222 13.16C21.8622 12.7733 22.3155 12.2067 22.5822 11.46C22.8622 10.7133 23.0022 9.78667 23.0022 8.68V7.38L23.6422 6.46C23.6289 7.48667 23.4222 8.34 23.0222 9.02C22.6355 9.68667 22.0955 10.1933 21.4022 10.54C20.7089 10.8733 19.9155 11.04 19.0222 11.04C17.9822 11.04 17.0955 10.8333 16.3622 10.42C15.6289 10.0067 15.0622 9.43333 14.6622 8.7C14.2755 7.96667 14.0822 7.11333 14.0822 6.14C14.0822 5.12667 14.3089 4.23333 14.7622 3.46C15.2155 2.67333 15.8555 2.06667 16.6822 1.64C17.5222 1.2 18.5222 0.979999 19.6822 0.979999ZM19.7422 3.36C19.1155 3.36 18.5822 3.48 18.1422 3.72C17.7022 3.94667 17.3689 4.26667 17.1422 4.68C16.9155 5.09333 16.8022 5.56667 16.8022 6.1C16.8022 6.64667 16.9089 7.12667 17.1222 7.54C17.3489 7.95333 17.6755 8.27333 18.1022 8.5C18.5289 8.72667 19.0422 8.84 19.6422 8.84C20.2155 8.84 20.7355 8.74 21.2022 8.54C21.6822 8.32667 22.0555 8.02 22.3222 7.62C22.6022 7.20667 22.7422 6.7 22.7422 6.1C22.7422 5.58 22.6289 5.11333 22.4022 4.7C22.1889 4.28667 21.8555 3.96 21.4022 3.72C20.9622 3.48 20.4089 3.36 19.7422 3.36Z" fill="white"/>
<path d="M31.5169 14.06V4.18H33.9569V14.06H31.5169ZM27.8969 10.24V8H37.5769V10.24H27.8969Z" fill="#4573FD"/>
</svg>
