<svg width="20" height="20" viewBox="0 0 20 20" fill="none" xmlns="http://www.w3.org/2000/svg">
<path d="M17.7083 15.1418V15.9918M4.85829 10H15.1416C15.8224 10 16.4752 10.2704 16.9565 10.7517C17.4379 11.2331 17.7083 11.8859 17.7083 12.5667V15.1333H2.29163V12.5667C2.29163 11.8859 2.56204 11.2331 3.04338 10.7517C3.52473 10.2704 4.17757 10 4.85829 10ZM2.29163 15.1418V15.9918V15.1418Z" stroke="white" stroke-linecap="round" stroke-linejoin="round"/>
<path d="M16.85 10.6585V6.57509C16.85 5.89436 16.5796 5.24152 16.0983 4.76018C15.6169 4.27884 14.9641 4.00842 14.2834 4.00842H5.71669C5.03597 4.00842 4.38312 4.27884 3.90178 4.76018C3.42044 5.24152 3.15002 5.89436 3.15002 6.57509V10.6585" stroke="white" stroke-linecap="round" stroke-linejoin="round"/>
<path d="M8.14989 6.5752H6.70822C6.16054 6.5752 5.71655 7.01918 5.71655 7.56686V9.0085C5.71655 9.55625 6.16054 10.0002 6.70822 10.0002H8.14989C8.69755 10.0002 9.14155 9.55625 9.14155 9.0085V7.56686C9.14155 7.01918 8.69755 6.5752 8.14989 6.5752ZM13.2916 6.5752H11.8499C11.3022 6.5752 10.8582 7.01918 10.8582 7.56686V9.0085C10.8582 9.55625 11.3022 10.0002 11.8499 10.0002H13.2916C13.8392 10.0002 14.2832 9.55625 14.2832 9.0085V7.56686C14.2832 7.01918 13.8392 6.5752 13.2916 6.5752Z" stroke="white" stroke-linecap="round" stroke-linejoin="round"/>
</svg>
