<svg width="57" height="28" viewBox="0 0 57 28" fill="none" xmlns="http://www.w3.org/2000/svg">
<path d="M5.66 27V3.888L7.244 5.112H0.296V0.719999H10.736V27H5.66ZM25.921 27.684C23.857 27.684 22.081 27.276 20.593 26.46C19.129 25.644 18.001 24.564 17.209 23.22C16.441 21.852 16.057 20.364 16.057 18.756H20.989C20.989 19.668 21.193 20.472 21.601 21.168C22.033 21.864 22.621 22.416 23.365 22.824C24.109 23.208 24.973 23.4 25.957 23.4C26.989 23.4 27.877 23.184 28.621 22.752C29.365 22.32 29.929 21.732 30.313 20.988C30.721 20.244 30.925 19.392 30.925 18.432C30.925 17.496 30.721 16.656 30.313 15.912C29.929 15.144 29.365 14.544 28.621 14.112C27.901 13.656 27.025 13.428 25.993 13.428C25.129 13.428 24.313 13.596 23.545 13.932C22.777 14.268 22.177 14.712 21.745 15.264H17.029L18.361 0.719999H33.589V5.076H20.593L22.393 3.672L21.529 12.744L20.305 12.384C21.001 11.592 21.853 10.932 22.861 10.404C23.869 9.876 25.141 9.612 26.677 9.612C28.621 9.612 30.277 10.008 31.645 10.8C33.013 11.592 34.057 12.648 34.777 13.968C35.497 15.264 35.857 16.68 35.857 18.216V18.684C35.857 20.244 35.473 21.708 34.705 23.076C33.937 24.444 32.809 25.56 31.321 26.424C29.857 27.264 28.057 27.684 25.921 27.684Z" fill="white"/>
<path d="M45.7108 23.508V5.724H50.1028V23.508H45.7108ZM39.1948 16.632V12.6H56.6188V16.632H39.1948Z" fill="#4573FD"/>
</svg>
