<svg width="67" height="29" viewBox="0 0 67 29" fill="none" xmlns="http://www.w3.org/2000/svg">
<path d="M0.368 22.564V17.02L10.664 0.999998L14.516 3.628L5.444 17.812L5.876 18.532H22.004V22.564H0.368ZM14.12 28V9.172H18.836V28H14.12ZM34.4279 0.963998C36.3719 0.963998 38.0159 1.3 39.3599 1.972C40.7279 2.62 41.8319 3.52 42.6719 4.672C43.5119 5.824 44.1239 7.168 44.5079 8.704C44.8919 10.216 45.0839 11.824 45.0839 13.528V15.112C45.0839 19.408 43.9919 22.672 41.8079 24.904C39.6479 27.112 36.4679 28.216 32.2679 28.216C31.3559 28.216 30.5039 28.192 29.7119 28.144C28.9199 28.096 28.1279 28.024 27.3359 27.928V23.644C28.1279 23.74 28.9319 23.812 29.7479 23.86C30.5879 23.908 31.4879 23.932 32.4479 23.932C34.4639 23.932 36.0479 23.584 37.1999 22.888C38.3519 22.192 39.1679 21.172 39.6479 19.828C40.1519 18.484 40.4039 16.816 40.4039 14.824V12.484L41.5559 10.828C41.5319 12.676 41.1599 14.212 40.4399 15.436C39.7439 16.636 38.7719 17.548 37.5239 18.172C36.2759 18.772 34.8479 19.072 33.2399 19.072C31.3679 19.072 29.7719 18.7 28.4519 17.956C27.1319 17.212 26.1119 16.18 25.3919 14.86C24.6959 13.54 24.3479 12.004 24.3479 10.252C24.3479 8.428 24.7559 6.82 25.5719 5.428C26.3879 4.012 27.5399 2.92 29.0279 2.152C30.5399 1.36 32.3399 0.963998 34.4279 0.963998ZM34.5359 5.248C33.4079 5.248 32.4479 5.464 31.6559 5.896C30.8639 6.304 30.2639 6.88 29.8559 7.624C29.4479 8.368 29.2439 9.22 29.2439 10.18C29.2439 11.164 29.4359 12.028 29.8199 12.772C30.2279 13.516 30.8159 14.092 31.5839 14.5C32.3519 14.908 33.2759 15.112 34.3559 15.112C35.3879 15.112 36.3239 14.932 37.1639 14.572C38.0279 14.188 38.6999 13.636 39.1799 12.916C39.6839 12.172 39.9359 11.26 39.9359 10.18C39.9359 9.244 39.7319 8.404 39.3239 7.66C38.9399 6.916 38.3399 6.328 37.5239 5.896C36.7319 5.464 35.7359 5.248 34.5359 5.248Z" fill="white"/>
<path d="M55.7304 24.508V6.724H60.1224V24.508H55.7304ZM49.2144 17.632V13.6H66.6384V17.632H49.2144Z" fill="#4573FD"/>
</svg>
