<svg width="47" height="44" viewBox="0 0 47 44" fill="none" xmlns="http://www.w3.org/2000/svg">
<path opacity="0.5" d="M45.9399 22C45.9399 33.8558 35.9387 43.5 23.5599 43.5C11.1811 43.5 1.17993 33.8558 1.17993 22C1.17993 10.1442 11.1811 0.5 23.5599 0.5C35.9387 0.5 45.9399 10.1442 45.9399 22Z" stroke="#D0D0D1"/>
<path d="M30.8182 21.4022V27.9894C30.8182 30.1 29.1688 31.818 27.1364 31.818H23.4546V27.1059C23.4546 26.4776 22.9441 25.9671 22.3157 25.9671H19.6844C19.0561 25.9671 18.5553 26.4776 18.5553 27.1059V31.818H14.8637C12.8313 31.818 11.1819 30.1 11.1819 27.9894V21.4022C11.1819 20.2733 11.663 19.2032 12.4877 18.4669L18.6241 13.0873C20.0084 11.8798 22.0015 11.8798 23.3761 13.0873L29.5124 18.4669C30.347 19.2032 30.8182 20.2733 30.8182 21.4022Z" fill="#1FAB71"/>
</svg>
