<svg width="44" height="44" viewBox="0 0 44 44" fill="none" xmlns="http://www.w3.org/2000/svg">
<circle opacity="0.5" cx="22" cy="22" r="21.5" stroke="#D0D0D1"/>
<path d="M31.8182 21.4022V27.9894C31.8182 30.1 30.1687 31.818 28.1364 31.818H24.4546V27.1059C24.4546 26.4776 23.944 25.9671 23.3156 25.9671H20.6844C20.056 25.9671 19.5553 26.4776 19.5553 27.1059V31.818H15.8636C13.8313 31.818 12.1818 30.1 12.1818 27.9894V21.4022C12.1818 20.2733 12.6629 19.2032 13.4876 18.4669L19.624 13.0873C21.0084 11.8798 23.0015 11.8798 24.376 13.0873L30.5124 18.4669C31.3469 19.2032 31.8182 20.2733 31.8182 21.4022Z" fill="#1FAB71"/>
</svg>
