<svg width="103" height="30" viewBox="0 0 103 30" fill="none" xmlns="http://www.w3.org/2000/svg">
<path d="M33.6504 1.51562H40.5439C41.9574 1.51562 43.1719 1.72721 44.1875 2.15039C45.2116 2.57357 45.9987 3.19987 46.5488 4.0293C47.099 4.85872 47.374 5.87858 47.374 7.08887C47.374 8.0791 47.2048 8.92969 46.8662 9.64062C46.5361 10.3431 46.0664 10.9313 45.457 11.4053C44.8561 11.8708 44.1494 12.2432 43.3369 12.5225L42.1309 13.1572H36.1387L36.1133 10.1865H40.5693C41.238 10.1865 41.7923 10.068 42.2324 9.83105C42.6725 9.59408 43.0026 9.264 43.2227 8.84082C43.4512 8.41764 43.5654 7.92676 43.5654 7.36816C43.5654 6.77572 43.4554 6.26367 43.2354 5.83203C43.0153 5.40039 42.681 5.07031 42.2324 4.8418C41.7839 4.61328 41.221 4.49902 40.5439 4.49902H37.459V20H33.6504V1.51562ZM43.9844 20L39.7695 11.7607L43.7939 11.7354L48.0596 19.8223V20H43.9844Z" fill="white"/>
<path d="M57.1804 20.2539C56.114 20.2539 55.1576 20.0846 54.3113 19.7461C53.4649 19.3991 52.7455 18.9209 52.153 18.3115C51.5691 17.7021 51.1205 16.9954 50.8073 16.1914C50.4942 15.3789 50.3376 14.5156 50.3376 13.6016V13.0938C50.3376 12.0527 50.4857 11.1006 50.782 10.2373C51.0782 9.37402 51.5014 8.625 52.0515 7.99023C52.6101 7.35547 53.2872 6.86881 54.0827 6.53027C54.8783 6.18327 55.7754 6.00977 56.7741 6.00977C57.7474 6.00977 58.6107 6.17057 59.364 6.49219C60.1172 6.8138 60.7478 7.27083 61.2556 7.86328C61.7719 8.45573 62.1612 9.16667 62.4236 9.99609C62.6859 10.8171 62.8171 11.7311 62.8171 12.7383V14.2617H51.8991V11.8242H59.2243V11.5449C59.2243 11.0371 59.1312 10.5843 58.945 10.1865C58.7673 9.78027 58.4965 9.45866 58.1325 9.22168C57.7686 8.9847 57.3031 8.86621 56.7361 8.86621C56.2536 8.86621 55.8389 8.97201 55.4919 9.18359C55.1449 9.39518 54.8614 9.69141 54.6413 10.0723C54.4297 10.4531 54.2689 10.9017 54.1589 11.418C54.0573 11.9258 54.0066 12.4844 54.0066 13.0938V13.6016C54.0066 14.1517 54.0827 14.6595 54.2351 15.125C54.3959 15.5905 54.6202 15.9925 54.9079 16.3311C55.2042 16.6696 55.5596 16.932 55.9743 17.1182C56.3975 17.3044 56.8757 17.3975 57.4089 17.3975C58.0691 17.3975 58.6827 17.2705 59.2497 17.0166C59.8252 16.7542 60.3204 16.3607 60.7351 15.8359L62.5124 17.7656C62.2247 18.1803 61.8311 18.5781 61.3318 18.959C60.8409 19.3398 60.2484 19.653 59.5544 19.8984C58.8604 20.1354 58.0691 20.2539 57.1804 20.2539Z" fill="white"/>
<path d="M69.2592 9.19629V20H65.603V6.26367H69.0307L69.2592 9.19629ZM68.726 12.6494H67.7358C67.7358 11.6338 67.867 10.7197 68.1293 9.90723C68.3917 9.08626 68.7599 8.38802 69.2338 7.8125C69.7078 7.22852 70.2706 6.78418 70.9223 6.47949C71.5825 6.16634 72.3188 6.00977 73.1313 6.00977C73.7745 6.00977 74.3627 6.10286 74.8959 6.28906C75.4291 6.47526 75.8862 6.77148 76.267 7.17773C76.6564 7.58398 76.9526 8.12142 77.1557 8.79004C77.3673 9.45866 77.4731 10.2754 77.4731 11.2402V20H73.7914V11.2275C73.7914 10.6182 73.7068 10.1442 73.5375 9.80566C73.3683 9.46712 73.1186 9.23014 72.7885 9.09473C72.4669 8.95085 72.0691 8.87891 71.5952 8.87891C71.1043 8.87891 70.6769 8.97624 70.3129 9.1709C69.9575 9.36556 69.6612 9.63639 69.4243 9.9834C69.1957 10.3219 69.0222 10.7197 68.9038 11.1768C68.7853 11.6338 68.726 12.1247 68.726 12.6494Z" fill="white"/>
<path d="M87.7619 6.26367V8.85352H79.7638V6.26367H87.7619ZM81.7443 2.87402H85.4005V15.8613C85.4005 16.2591 85.4513 16.5638 85.5529 16.7754C85.6629 16.987 85.8237 17.1351 86.0353 17.2197C86.2469 17.2959 86.5135 17.334 86.8351 17.334C87.0636 17.334 87.2668 17.3255 87.4445 17.3086C87.6307 17.2832 87.7873 17.2578 87.9142 17.2324L87.9269 19.9238C87.6138 20.0254 87.2752 20.1058 86.9113 20.165C86.5474 20.2243 86.1453 20.2539 85.7052 20.2539C84.9012 20.2539 84.1987 20.1227 83.5978 19.8604C83.0054 19.5895 82.5483 19.1579 82.2267 18.5654C81.9051 17.973 81.7443 17.1943 81.7443 16.2295V2.87402Z" fill="white"/>
<path d="M94.6991 18.4512L98.3427 6.26367H102.266L96.743 22.0693C96.6246 22.4163 96.4637 22.7887 96.2606 23.1865C96.066 23.5843 95.7994 23.9609 95.4608 24.3164C95.1307 24.6803 94.7118 24.9766 94.204 25.2051C93.7046 25.4336 93.091 25.5479 92.3632 25.5479C92.0162 25.5479 91.7326 25.5267 91.5126 25.4844C91.2925 25.4421 91.0302 25.3828 90.7255 25.3066V22.6279C90.8186 22.6279 90.9159 22.6279 91.0175 22.6279C91.119 22.6364 91.2164 22.6406 91.3095 22.6406C91.7919 22.6406 92.1854 22.5856 92.4901 22.4756C92.7948 22.3656 93.0402 22.1963 93.2264 21.9678C93.4126 21.7477 93.5608 21.46 93.6708 21.1045L94.6991 18.4512ZM93.1757 6.26367L96.1591 16.2168L96.6796 20.0889L94.1913 20.3555L89.2528 6.26367H93.1757Z" fill="white"/>
<g filter="url(#filter0_d_226_278)">
<path d="M9.72512 0L19.8626 10.158C20.6749 10.9719 21.9919 10.9719 22.8042 10.158C23.6165 9.34403 23.6165 8.02439 22.8042 7.21045L15.6083 0H21.2152C22.0081 0 22.7457 0.407368 23.1692 1.07917L28.6429 9.76338C29.119 10.5188 29.119 11.4812 28.6429 12.2366L23.1692 20.9208C22.8656 21.4025 22.4006 21.7482 21.8694 21.9053L11.2486 11.2631C10.4363 10.4491 9.11931 10.4491 8.30701 11.2631C7.49472 12.077 7.49472 13.3967 8.30701 14.2106L16.0807 22H6.31112C5.03473 22 4 20.9632 4 19.6842V2.31579C4 1.03682 5.03473 0 6.31112 0H9.72512Z" fill="white"/>
</g>
<defs>
<filter id="filter0_d_226_278" x="0" y="0" width="33" height="30" filterUnits="userSpaceOnUse" color-interpolation-filters="sRGB">
<feFlood flood-opacity="0" result="BackgroundImageFix"/>
<feColorMatrix in="SourceAlpha" type="matrix" values="0 0 0 0 0 0 0 0 0 0 0 0 0 0 0 0 0 0 127 0" result="hardAlpha"/>
<feOffset dy="4"/>
<feGaussianBlur stdDeviation="2"/>
<feComposite in2="hardAlpha" operator="out"/>
<feColorMatrix type="matrix" values="0 0 0 0 0 0 0 0 0 0 0 0 0 0 0 0 0 0 0.25 0"/>
<feBlend mode="normal" in2="BackgroundImageFix" result="effect1_dropShadow_226_278"/>
<feBlend mode="normal" in="SourceGraphic" in2="effect1_dropShadow_226_278" result="shape"/>
</filter>
</defs>
</svg>
